# xmcd
#
# Track frame offsets:
#	150
#	13260
#	28717
#	46867
#	57697
#	72267
#	85217
#	98442
#	116042
#	131842
#	148342
#	171610
#	173072
#	187680
#
# Disc length: 2676 seconds
#
# Revision: 0
# Processed by: cddbd v1.5.2PL0 Copyright (c) Steve Scherf et al.
# Submitted via: EasyCDDAExtractor 16.1.0.1
#
DISCID=c90a720e
DTITLE=The Ozark Mountain Daredevils - The Car Over the Lake Album
DYEAR=1975
DGENRE=
TTITLE0=Keep On Churning
TTITLE1=If I Only Knew
TTITLE2=Leatherwood
TTITLE3=Cobblestone Mountain
TTITLE4=Mr. Powell
TTITLE5=Gypsy Forest
TTITLE6=Thin Ice
TTITLE7=From Time To Time
TTITLE8=Southern Cross
TTITLE9=Out On The Sea
TTITLE10=Whippoorwill
TTITLE11=Establish Yourself
TTITLE12=Time Warp
TTITLE13=Journey To The Center Of Your Heart
EXTD=
EXTT0=
EXTT1=
EXTT2=
EXTT3=
EXTT4=
EXTT5=
EXTT6=
EXTT7=
EXTT8=
EXTT9=
EXTT10=
EXTT11=
EXTT12=
EXTT13=
PLAYORDER=
